<svg width="18" height="18" viewBox="0 0 18 18" fill="none" xmlns="http://www.w3.org/2000/svg">
<path d="M16.875 11.2759C17.6836 11.6275 18.1406 12.5064 17.8945 13.3853L17.1562 16.5845C17.0156 17.4282 16.2773 17.9907 15.3984 17.9907C6.89062 17.9907 0 11.1001 0 2.5923C0 1.71339 0.5625 0.975108 1.40625 0.799327L4.60547 0.0610456C5.48438 -0.149892 6.36328 0.307139 6.71484 1.11573L8.22656 4.63136C8.54297 5.36964 8.29688 6.24855 7.69922 6.77589L6.50391 7.72511C7.41797 9.27198 8.71875 10.5728 10.3008 11.4868L11.25 10.3267C11.7773 9.69386 12.6562 9.44776 13.4297 9.79933L16.875 11.2759ZM16.2773 12.9985C16.3125 12.9282 16.2773 12.8579 16.207 12.7876L12.7617 11.311C12.6914 11.2759 12.6211 11.311 12.5859 11.3462L11.1797 13.0689C10.9336 13.3853 10.4766 13.4556 10.125 13.2798C7.76953 12.1196 5.83594 10.186 4.67578 7.83058C4.5 7.47901 4.60547 7.05714 4.88672 6.81105L6.60938 5.4048C6.67969 5.36964 6.67969 5.29933 6.64453 5.22901L5.16797 1.7837C5.13281 1.74855 5.09766 1.67823 5.02734 1.67823L4.99219 1.71339L1.79297 2.45167C1.72266 2.45167 1.65234 2.52198 1.65234 2.5923C1.65234 10.1509 7.83984 16.3032 15.3984 16.3032C15.4688 16.3032 15.5391 16.2329 15.5391 16.1978L16.2773 12.9985Z" fill="#414651"/>
</svg>
